<svg width="728" height="176" xmlns="http://www.w3.org/2000/svg">

 <g>
  <title>RecycleApp</title>
  <rect fill="none" id="canvas_background" height="402" width="582" y="-1" x="-1"/>
 </g>
 <g>
  <title>Layer 1</title>
  <g stroke="null" id="svg_22">
   <path stroke="null" id="svg_8" fill="#29A361" d="m12.344268,1.423793l-3.856973,6.725131c-0.24906,0.434154 -0.085058,0.977077 0.368844,1.221172l6.03935,3.248223c0.460233,0.247483 1.045241,0.095298 1.306931,-0.340087l7.382112,-12.27774l-8.712649,0c-1.054599,0 -2.024639,0.546179 -2.527616,1.4233z"/>
   <path stroke="null" id="svg_9" fill="#248F55" d="m23.584111,0l-7.381774,12.277925c-0.262196,0.435231 -0.846866,0.587801 -1.306847,0.340472l-1.576377,-0.847523c0.384357,0.05858 0.784142,-0.108538 0.987659,-0.447548l6.809497,-11.323326l2.467842,0z"/>
   <path stroke="null" id="svg_10" fill="#34CB79" d="m31.661505,6.511703l-2.660231,-5.011403c-0.488055,-0.919451 -1.482543,-1.499808 -2.569854,-1.499808l-7.691604,0l5.905554,9.480529c-0.019306,0.008237 -0.038781,0.016473 -0.058172,0.02471c-0.371458,0.158189 -0.356282,0.662469 0.024028,0.800644l5.099493,1.853004c0.236313,0.085907 0.50146,-0.025787 0.592174,-0.24933l1.965792,-4.843869c0.145346,-0.358308 -0.236313,-0.704052 -0.607181,-0.554477z"/>
   <path stroke="null" id="svg_11" fill="#2FB86E" d="m32.268686,7.065765l-1.966382,4.843822c-0.090293,0.224159 -0.355861,0.33593 -0.591921,0.249638l-1.542991,-0.560936l1.839416,-4.532525c0.104541,-0.257051 -0.062472,-0.507367 -0.302073,-0.573029c-0.22822,-0.062598 -0.423054,-0.204021 -0.529702,-0.404902l-2.435721,-4.587733c-0.487802,-0.919143 -1.481953,-1.500101 -2.569685,-1.500101l2.261879,0c1.086973,0 2.081125,0.580958 2.569685,1.500101l2.660062,5.01178c0.371373,-0.149498 0.752442,0.195646 0.607434,0.553885z"/>
   <path stroke="null" id="svg_12" fill="#29A361" d="m26.522556,25.833139c-0.071661,-0.278274 -0.451044,-0.397435 -0.682552,-0.178434l-3.98571,3.771363c-0.159003,0.150491 -0.159003,0.394356 0,0.54477l4.001054,3.785835c0.22999,0.217616 0.605495,0.101456 0.681034,-0.172045l5.883803,0c1.083264,0 2.074633,-0.575946 2.564711,-1.490055l3.357283,-6.261511l-11.819624,0l0,0.000077z"/>
   <path stroke="null" id="svg_13" fill="#248F55" d="m31.489434,25.833216l1.907789,2.73155c0.431316,0.617514 0.479034,1.406688 0.125028,2.066771l-0.784648,1.463113c-0.489319,0.913801 -1.48111,1.490132 -2.564036,1.490132l2.246535,0c1.082927,0 2.074633,-0.576331 2.56488,-1.490132l3.357031,-6.261357l-6.852578,0l0,-0.000077z"/>
   <path stroke="null" id="svg_14" fill="#29A361" d="m18.493134,32.864734l0,-6.66495c0,-0.500893 -0.429208,-0.907104 -0.958658,-0.907104l-15.791111,0l4.06382,7.059538c0.503711,0.875081 1.472485,1.419621 2.525508,1.419621l9.201783,0c0.529365,0 0.958658,-0.406057 0.958658,-0.907104z"/>
   <path stroke="null" id="svg_15" fill="#248F55" d="m8.440421,25.293295l-3.50692,5.541847l-3.190136,-5.541847l6.697056,0z"/>
   <path stroke="null" id="svg_16" fill="#248F55" d="m18.492796,26.199937l0,6.665181c0,0.500816 -0.429124,0.906796 -0.958321,0.906796l-2.515223,0c0.529281,0 0.958405,-0.40598 0.958405,-0.906796l0,-6.665181c0,-0.500816 -0.429124,-0.906796 -0.958405,-0.906796l2.515223,0c0.529197,-0.000077 0.958321,0.40598 0.958321,0.906796z"/>
   <path stroke="null" id="svg_17" fill="#34CB79" d="m10.77843,19.403432l-0.709108,-5.049653c-0.035072,-0.249484 -0.277202,-0.424762 -0.540831,-0.391662l-5.357102,0.673554c-0.40341,0.050728 -0.553747,0.515057 -0.27743,0.773394l-3.380932,4.611034c-0.619894,0.845445 -0.682804,1.949303 -0.162654,2.852866l3.679135,6.391372l5.973886,-9.442071c0.002108,0.001463 0.004131,0.003002 0.006323,0.004542c0.340939,0.244866 0.825031,-0.021862 0.768714,-0.423377z"/>
   <path stroke="null" id="svg_18" fill="#2FB86E" d="m10.009379,19.826809c-0.001686,-0.001617 -0.004047,-0.003079 -0.005733,-0.004619l-5.974088,9.44184l-1.228643,-2.134204l4.862421,-7.686366l0.134833,-0.213228c0.073744,-0.116544 0.217833,-0.166887 0.358753,-0.141023c0.000717,0.000154 0.001425,0.000231 0.002141,0.000385c0.299822,0.050574 0.60729,-0.185747 0.561259,-0.51013l-0.622913,-4.437758l1.430576,-0.179512c0.263882,-0.0331 0.506518,0.142562 0.541505,0.391354l0.709193,5.050346c0.056317,0.401284 -0.428197,0.667858 -0.769304,0.422915z"/>
   <path stroke="null" id="svg_19" fill="#34CB79" d="m39.958182,19.673085l-4.624759,-6.340798c-0.28361,-0.388968 -0.835485,-0.506666 -1.268065,-0.270422l-6.026957,3.290869c-0.478359,0.261185 -0.625138,0.849833 -0.32062,1.285834l8.496316,12.163382l3.941954,-7.351975c0.477095,-0.889861 0.401218,-1.955539 -0.197869,-2.776889z"/>
   <path stroke="null" id="svg_20" fill="#2FB86E" d="m40.155967,22.450128l-3.942544,7.35159l-1.322275,-1.893803l2.926389,-5.457865c0.477095,-0.889861 0.401387,-1.955385 -0.197869,-2.776736l-4.461118,-6.115792l0.906977,-0.495428c0.432412,-0.236552 0.984456,-0.118699 1.267812,0.270422l4.624843,6.340875c0.599172,0.821351 0.67488,1.886875 0.197785,2.776736z"/>
  </g>
  <g id="svg_39">
   <text font-weight="bold" xml:space="preserve" text-anchor="start" font-family="Arvo, sans-serif" font-size="24" id="svg_21" y="22.113636" x="45.41559" stroke-opacity="null" stroke-width="0" stroke="null" fill="#242463">R</text>
   <text font-weight="bold" xml:space="preserve" text-anchor="start" font-family="Arvo, sans-serif" font-size="24" id="svg_23" y="22.113636" x="62.298705" stroke-opacity="null" stroke-width="0" stroke="null" fill="#242463">e</text>
   <text font-weight="bold" xml:space="preserve" text-anchor="start" font-family="Arvo, sans-serif" font-size="24" id="svg_24" y="22.113636" x="75.545457" stroke-opacity="null" stroke-width="0" stroke="null" fill="#242463">c</text>
   <text font-weight="bold" xml:space="preserve" text-anchor="start" font-family="Arvo, sans-serif" font-size="24" id="svg_25" y="22.373376" x="89.051949" stroke-opacity="null" stroke-width="0" stroke="null" fill="#242463">y</text>
   <text font-weight="bold" xml:space="preserve" text-anchor="start" font-family="Arvo, sans-serif" font-size="24" id="svg_26" y="22.113636" x="101.779222" stroke-opacity="null" stroke-width="0" stroke="null" fill="#242463">c</text>
   <text font-weight="bold" xml:space="preserve" text-anchor="start" font-family="Arvo, sans-serif" font-size="24" id="svg_27" y="22.113636" x="115.545454" stroke-opacity="null" stroke-width="0" stroke="null" fill="#242463">l</text>
   <text font-weight="bold" xml:space="preserve" text-anchor="start" font-family="Arvo, sans-serif" font-size="24" id="svg_28" y="22.113636" x="121.259738" stroke-opacity="null" stroke-width="0" stroke="null" fill="#242463">e</text>
   <text font-weight="bold" xml:space="preserve" text-anchor="start" font-family="Arvo, sans-serif" font-size="24" id="svg_29" y="38.996751" x="130.350644" stroke-opacity="null" stroke-width="0" stroke="null" fill="#242463">A</text>
   <text font-weight="bold" xml:space="preserve" text-anchor="start" font-family="Arvo, sans-serif" font-size="24" id="svg_30" y="38.737011" x="147.4935" stroke-opacity="null" stroke-width="0" stroke="null" fill="#242463">p</text>
   <text font-weight="bold" xml:space="preserve" text-anchor="start" font-family="Arvo, sans-serif" font-size="24" id="svg_31" y="38.737011" x="161.779214" stroke-opacity="null" stroke-width="0" stroke="null" fill="#242463">p</text>
  </g>
 </g>
</svg>